<svg width="450" height="400" viewBox="0 0 450 400" fill="none" xmlns="http://www.w3.org/2000/svg">
<g clip-path="url(#clip0_1_287)">
<rect width="450" height="400" fill="white"/>
<path d="M88.3261 121.439C117.879 98.9741 295.318 180.009 358.429 141.513C421.54 103.016 358.369 213.857 387.852 238.887C417.336 263.917 69.4057 239.174 69.4057 239.174C69.4057 239.174 58.7731 143.903 88.3261 121.439Z" fill="#FF6F00"/>
<path d="M134.12 137.592C138.216 137.592 142.355 137.976 146.536 138.744C150.717 139.512 154.045 140.621 156.52 142.072C157.288 142.413 157.757 142.797 157.928 143.224C158.184 143.565 158.355 144.205 158.44 145.144L159.848 159.48C159.848 159.736 159.635 159.907 159.208 159.992C158.781 159.992 158.525 159.864 158.44 159.608C156.563 153.037 153.064 148.216 147.944 145.144C142.909 141.987 136.637 140.408 129.128 140.408C122.643 140.408 116.968 141.859 112.104 144.76C107.24 147.576 103.485 151.587 100.84 156.792C98.1947 161.997 96.872 168.013 96.872 174.84C96.872 182.776 98.4933 190.115 101.736 196.856C105.064 203.597 109.501 208.931 115.048 212.856C120.68 216.781 126.739 218.744 133.224 218.744C139.368 218.744 144.701 217.08 149.224 213.752C153.747 210.339 157.203 205.133 159.592 198.136C159.592 197.88 159.763 197.752 160.104 197.752C160.36 197.752 160.573 197.795 160.744 197.88C161 197.965 161.128 198.093 161.128 198.264L159.336 212.728C159.165 213.752 158.952 214.435 158.696 214.776C158.525 215.032 158.056 215.331 157.288 215.672C149.608 218.915 141.501 220.536 132.968 220.536C122.728 220.536 114.152 218.488 107.24 214.392C100.413 210.211 95.3787 204.92 92.136 198.52C88.8933 192.12 87.272 185.379 87.272 178.296C87.272 170.445 89.448 163.405 93.8 157.176C98.152 150.947 103.912 146.125 111.08 142.712C118.248 139.299 125.928 137.592 134.12 137.592Z" fill="#6A1B9A"/>
<path d="M207.544 184.312C207.544 183.032 207.395 182.093 207.096 181.496C206.84 180.856 206.328 180.408 205.56 180.152C204.792 179.896 203.576 179.768 201.912 179.768C201.784 179.768 201.72 179.64 201.72 179.384C201.72 179.128 201.784 179 201.912 179L204.984 179.064C206.861 179.149 208.419 179.192 209.656 179.192C210.808 179.192 212.28 179.149 214.072 179.064L217.208 179C217.336 179 217.4 179.128 217.4 179.384C217.4 179.64 217.336 179.768 217.208 179.768C215.587 179.768 214.392 179.896 213.624 180.152C212.856 180.365 212.323 180.771 212.024 181.368C211.768 181.965 211.64 182.904 211.64 184.184V213.816C211.64 215.096 211.768 216.056 212.024 216.696C212.323 217.293 212.856 217.699 213.624 217.912C214.392 218.125 215.587 218.232 217.208 218.232C217.336 218.232 217.4 218.36 217.4 218.616C217.4 218.872 217.336 219 217.208 219C215.885 219 214.84 218.979 214.072 218.936L209.656 218.872L204.984 218.936C204.216 218.979 203.192 219 201.912 219C201.784 219 201.72 218.872 201.72 218.616C201.72 218.36 201.784 218.232 201.912 218.232C203.576 218.232 204.792 218.125 205.56 217.912C206.328 217.699 206.84 217.293 207.096 216.696C207.395 216.056 207.544 215.096 207.544 213.816V184.312ZM180.728 197.496H209.336V198.84H180.728V197.496ZM178.872 184.184C178.872 182.904 178.723 181.965 178.424 181.368C178.168 180.771 177.656 180.365 176.888 180.152C176.12 179.896 174.925 179.768 173.304 179.768C173.219 179.768 173.176 179.64 173.176 179.384C173.176 179.128 173.219 179 173.304 179L176.568 179.064C178.36 179.149 179.789 179.192 180.856 179.192C182.093 179.192 183.651 179.149 185.528 179.064L188.6 179C188.685 179 188.728 179.128 188.728 179.384C188.728 179.64 188.685 179.768 188.6 179.768C186.979 179.768 185.763 179.896 184.952 180.152C184.184 180.408 183.651 180.856 183.352 181.496C183.096 182.093 182.968 183.032 182.968 184.312V213.816C182.968 215.096 183.096 216.056 183.352 216.696C183.651 217.293 184.184 217.699 184.952 217.912C185.72 218.125 186.936 218.232 188.6 218.232C188.685 218.232 188.728 218.36 188.728 218.616C188.728 218.872 188.685 219 188.6 219C187.277 219 186.232 218.979 185.464 218.936L180.856 218.872L176.44 218.936C175.672 218.979 174.605 219 173.24 219C173.155 219 173.112 218.872 173.112 218.616C173.112 218.36 173.155 218.232 173.24 218.232C174.861 218.232 176.056 218.125 176.824 217.912C177.635 217.699 178.168 217.293 178.424 216.696C178.723 216.056 178.872 215.096 178.872 213.816V184.184ZM231.659 203.128H243.307L243.755 204.28H230.635L231.659 203.128ZM255.147 218.232C255.317 218.232 255.403 218.36 255.403 218.616C255.403 218.872 255.317 219 255.147 219C254.379 219 253.141 218.957 251.435 218.872C249.728 218.787 248.491 218.744 247.723 218.744C247.04 218.744 246.144 218.787 245.035 218.872C243.925 218.957 243.072 219 242.475 219C242.304 219 242.219 218.872 242.219 218.616C242.219 218.36 242.304 218.232 242.475 218.232C243.627 218.232 244.459 218.104 244.971 217.848C245.525 217.549 245.803 217.059 245.803 216.376C245.803 215.779 245.525 214.861 244.971 213.624L235.243 192.632L236.907 191.224L228.907 211.128C228.224 212.749 227.883 214.093 227.883 215.16C227.883 216.269 228.267 217.059 229.035 217.528C229.803 217.997 230.976 218.232 232.555 218.232C232.768 218.232 232.875 218.36 232.875 218.616C232.875 218.872 232.768 219 232.555 219C231.915 219 231.04 218.957 229.931 218.872C228.736 218.787 227.627 218.744 226.603 218.744C225.536 218.744 224.277 218.787 222.827 218.872C221.547 218.957 220.523 219 219.755 219C219.541 219 219.434 218.872 219.434 218.616C219.434 218.36 219.541 218.232 219.755 218.232C221.077 218.232 222.123 218.061 222.891 217.72C223.659 217.336 224.363 216.611 225.003 215.544C225.685 214.477 226.496 212.813 227.435 210.552L236.651 188.088C236.736 187.917 236.864 187.832 237.035 187.832C237.205 187.832 237.312 187.917 237.355 188.088L247.659 210.232C248.768 212.621 249.643 214.349 250.283 215.416C250.965 216.483 251.648 217.229 252.331 217.656C253.056 218.04 253.995 218.232 255.147 218.232ZM271.057 218.232C271.142 218.232 271.185 218.36 271.185 218.616C271.185 218.872 271.142 219 271.057 219C269.862 219 268.945 218.979 268.305 218.936L264.273 218.872L260.497 218.936C259.771 218.979 258.79 219 257.553 219C257.467 219 257.424 218.872 257.424 218.616C257.424 218.36 257.467 218.232 257.553 218.232C258.961 218.232 259.985 218.125 260.625 217.912C261.307 217.699 261.777 217.293 262.033 216.696C262.289 216.056 262.417 215.096 262.417 213.816V194.232C262.417 192.952 262.289 192.013 262.033 191.416C261.819 190.819 261.371 190.413 260.689 190.2C260.049 189.944 259.025 189.816 257.617 189.816C257.531 189.816 257.489 189.688 257.489 189.432C257.489 189.176 257.531 189.048 257.617 189.048L260.561 189.112C262.097 189.197 263.334 189.24 264.273 189.24C265.041 189.24 265.745 189.219 266.385 189.176C267.067 189.133 267.643 189.091 268.113 189.048C269.478 188.92 270.737 188.856 271.889 188.856C274.662 188.856 276.774 189.389 278.225 190.456C279.675 191.523 280.401 193.059 280.401 195.064C280.401 196.813 279.889 198.435 278.865 199.928C277.841 201.421 276.433 202.616 274.641 203.512C272.849 204.365 270.886 204.792 268.753 204.792C267.387 204.792 266.214 204.707 265.233 204.536L265.169 203.256C266.235 203.555 267.579 203.704 269.201 203.704C271.846 203.704 273.681 203.128 274.705 201.976C275.771 200.781 276.305 199.053 276.305 196.792C276.305 192.099 274.278 189.752 270.225 189.752C268.603 189.752 267.537 190.093 267.025 190.776C266.555 191.459 266.321 192.653 266.321 194.36V213.816C266.321 215.139 266.427 216.099 266.641 216.696C266.854 217.293 267.281 217.699 267.921 217.912C268.561 218.125 269.606 218.232 271.057 218.232ZM290.065 218.232C290.15 218.232 290.193 218.36 290.193 218.616C290.193 218.872 290.15 219 290.065 219H282.577C281.809 219 280.422 217.677 278.417 215.032C276.411 212.387 274.022 208.76 271.249 204.152L274.641 202.808C277.115 206.861 279.185 209.976 280.849 212.152C282.513 214.328 284.049 215.885 285.457 216.824C286.907 217.763 288.443 218.232 290.065 218.232ZM306.974 219.256C305.779 219.256 304.435 219.192 302.942 219.064C302.43 219.021 301.79 218.979 301.022 218.936C300.254 218.893 299.379 218.872 298.398 218.872L294.622 218.936C293.896 218.979 292.915 219 291.678 219C291.592 219 291.549 218.872 291.549 218.616C291.549 218.36 291.592 218.232 291.678 218.232C293.128 218.232 294.174 218.125 294.814 217.912C295.496 217.699 295.944 217.293 296.158 216.696C296.414 216.056 296.542 215.096 296.542 213.816V194.232C296.542 192.952 296.414 192.013 296.158 191.416C295.944 190.819 295.496 190.413 294.814 190.2C294.174 189.944 293.15 189.816 291.742 189.816C291.656 189.816 291.614 189.688 291.614 189.432C291.614 189.176 291.656 189.048 291.742 189.048L294.622 189.112C296.243 189.197 297.502 189.24 298.398 189.24C299.72 189.24 301.043 189.176 302.366 189.048C304.072 188.963 305.352 188.92 306.206 188.92C309.79 188.92 312.883 189.56 315.486 190.84C318.088 192.12 320.072 193.891 321.438 196.152C322.803 198.413 323.486 200.973 323.486 203.832C323.486 206.776 322.782 209.421 321.374 211.768C319.966 214.115 318.003 215.949 315.486 217.272C313.011 218.595 310.174 219.256 306.974 219.256ZM306.206 218.36C310.216 218.36 313.331 217.165 315.55 214.776C317.768 212.387 318.878 208.973 318.878 204.536C318.878 200.269 317.768 196.749 315.55 193.976C313.374 191.203 310.088 189.816 305.694 189.816C303.731 189.816 302.344 190.136 301.534 190.776C300.766 191.416 300.382 192.611 300.382 194.36V213.112C300.382 215.032 300.766 216.397 301.534 217.208C302.344 217.976 303.902 218.36 306.206 218.36ZM337.205 213.816C337.205 215.139 337.311 216.099 337.525 216.696C337.781 217.293 338.229 217.699 338.869 217.912C339.509 218.125 340.554 218.232 342.005 218.232C342.09 218.232 342.133 218.36 342.133 218.616C342.133 218.872 342.09 219 342.005 219C340.81 219 339.871 218.979 339.189 218.936L335.157 218.872L331.381 218.936C330.655 218.979 329.674 219 328.437 219C328.351 219 328.309 218.872 328.309 218.616C328.309 218.36 328.351 218.232 328.437 218.232C329.887 218.232 330.933 218.125 331.573 217.912C332.213 217.699 332.639 217.293 332.853 216.696C333.109 216.099 333.237 215.139 333.237 213.816V194.232C333.237 192.952 333.109 192.013 332.853 191.416C332.639 190.819 332.191 190.413 331.509 190.2C330.869 189.944 329.845 189.816 328.437 189.816C328.351 189.816 328.309 189.688 328.309 189.432C328.309 189.176 328.351 189.048 328.437 189.048L331.381 189.112C332.917 189.197 334.175 189.24 335.157 189.24C336.266 189.24 337.631 189.197 339.253 189.112L342.005 189.048C342.09 189.048 342.133 189.176 342.133 189.432C342.133 189.688 342.09 189.816 342.005 189.816C340.639 189.816 339.615 189.944 338.933 190.2C338.25 190.456 337.781 190.904 337.525 191.544C337.311 192.141 337.205 193.08 337.205 194.36V213.816Z" fill="#6A1B9A"/>
</g>
<defs>
<clipPath id="clip0_1_287">
<rect width="450" height="400" fill="white"/>
</clipPath>
</defs>
</svg>
